<?xml version="1.0" standalone="no"?>
<!DOCTYPE svg PUBLIC "-//W3C//DTD SVG 20010904//EN"
 "http://www.w3.org/TR/2001/REC-SVG-20010904/DTD/svg10.dtd">
<svg version="1.0" xmlns="http://www.w3.org/2000/svg"
 width="200.000000pt" height="200.000000pt" viewBox="0 0 200.000000 200.000000"
 preserveAspectRatio="xMidYMid meet">
<metadata>
Created by potrace 1.14, written by Peter Selinger 2001-2017
</metadata>
<g transform="translate(0.000000,200.000000) scale(0.100000,-0.100000)"
fill="#000000" stroke="none">
<path d="M20 1951 c0 -28 -4 -53 -10 -56 -6 -4 -10 -207 -10 -576 l0 -569 35
0 c18 0 38 -6 42 -14 12 -19 140 -28 193 -12 33 10 54 10 102 0 58 -12 100 -6
118 17 11 14 121 21 136 8 17 -14 87 -22 78 -8 -3 5 0 9 7 9 7 0 27 12 43 28
26 23 28 24 11 3 -52 -64 -196 -204 -193 -188 2 10 6 17 9 15 7 -4 23 13 73
75 21 26 33 47 27 47 -6 0 -14 -6 -17 -14 -3 -8 -15 -11 -30 -8 -13 2 -30 0
-37 -6 -6 -5 -28 -11 -47 -13 -44 -4 -86 -32 -105 -70 -9 -16 -22 -29 -30 -29
-8 0 -15 -4 -15 -8 0 -5 -18 -8 -40 -8 -22 1 -40 -2 -40 -6 0 -4 -11 -19 -25
-34 -19 -21 -35 -27 -72 -29 -26 -1 -49 -7 -51 -13 -2 -7 -8 -9 -13 -6 -6 3
-16 0 -24 -6 -9 -7 -28 -10 -44 -7 -19 4 -31 2 -34 -6 -5 -15 -37 79 -37 109
0 13 -5 26 -10 29 -7 4 -10 -54 -10 -168 l0 -175 27 -11 c16 -6 37 -12 48 -14
31 -4 63 -30 75 -61 l11 -29 -81 7 -80 7 0 -68 c1 -59 2 -66 14 -50 17 21 59
22 91 1 14 -9 25 -13 25 -8 0 5 7 -2 16 -15 l16 -22 19 20 c11 11 21 35 23 53
2 18 4 38 5 43 1 6 9 -2 17 -17 8 -16 19 -28 25 -28 6 0 9 -7 5 -15 -4 -12 0
-14 19 -9 21 5 24 3 18 -12 -5 -13 -3 -16 10 -11 9 3 17 2 17 -2 0 -5 -6 -12
-13 -14 -6 -3 28 -6 77 -6 l88 -1 -6 34 c-4 18 -4 40 0 49 5 14 10 13 32 -8
14 -13 28 -22 31 -19 3 3 0 9 -8 13 -9 6 -6 10 12 13 20 4 24 1 20 -11 -4 -14
-3 -14 6 -1 6 8 11 23 11 33 0 10 5 15 10 12 6 -4 10 9 10 32 1 42 37 133 40
98 1 -11 8 3 17 30 15 49 33 81 33 57 0 -7 5 -12 10 -12 6 0 10 9 10 19 0 10
7 21 15 25 8 3 15 13 15 23 1 14 4 13 15 -7 9 -15 15 -19 15 -10 0 9 6 5 15
-10 l14 -25 1 32 c0 26 -3 31 -17 28 -10 -3 -2 2 17 11 41 19 83 21 88 5 2 -6
12 -11 23 -11 10 0 19 -4 19 -9 0 -4 11 -6 25 -3 17 3 27 -1 31 -12 3 -9 12
-16 20 -16 7 0 18 -9 24 -20 6 -11 8 -20 4 -20 -3 0 5 -13 18 -29 12 -16 32
-40 42 -55 10 -14 25 -26 32 -26 8 0 14 -10 15 -22 0 -23 0 -23 10 1 5 14 8
30 5 38 -3 7 -1 15 4 18 17 10 11 25 -10 25 -11 0 -20 -5 -20 -11 0 -5 -4 -8
-9 -4 -13 8 -9 86 4 82 5 -2 9 -12 7 -22 -3 -13 1 -16 12 -12 10 4 21 -1 28
-13 7 -11 18 -20 25 -20 7 0 17 -8 22 -17 6 -10 11 -15 11 -11 0 15 60 -48 60
-64 0 -21 20 -20 36 2 9 11 15 12 26 3 8 -7 24 -10 36 -6 21 5 22 3 22 -86 l0
-91 143 0 c110 0 148 3 163 15 27 20 51 20 34 0 -11 -13 -8 -15 18 -15 17 0
34 5 37 10 3 6 17 10 30 10 13 0 26 4 30 9 10 17 91 68 118 75 l27 6 0 815 c0
448 -2 815 -5 815 -2 0 -15 -5 -29 -11 -20 -9 -32 -9 -58 4 -18 8 -42 17 -53
20 -16 4 -17 5 -2 6 9 0 17 8 17 16 0 9 15 23 34 32 27 12 40 13 65 5 l31 -11
0 49 c0 27 -4 52 -10 55 -5 3 -10 26 -10 51 0 40 -2 44 -25 44 -32 0 -81 -43
-90 -78 -8 -32 -21 -42 -57 -42 -29 0 -101 64 -113 100 -6 18 -15 20 -81 20
-80 0 -89 -8 -60 -53 12 -19 12 -27 -1 -59 -16 -40 -41 -49 -63 -23 -14 17
-50 20 -50 5 0 -21 -40 -8 -69 22 -39 42 -48 78 -25 95 15 11 2 13 -79 13 -97
0 -97 0 -97 -25 0 -26 -9 -29 -47 -19 -14 4 -23 14 -23 25 0 27 -53 25 -90 -3
-27 -20 -30 -27 -30 -80 0 -66 -12 -78 -77 -78 -33 0 -42 6 -66 40 -20 29 -26
46 -21 65 3 14 3 25 -1 25 -14 0 -72 -66 -80 -90 -4 -12 -10 -18 -14 -13 -3 6
-24 14 -46 17 -34 6 -44 3 -60 -13 -10 -12 -28 -22 -39 -22 -17 -1 -18 -2 -3
-6 22 -6 22 -12 0 -29 -24 -18 -55 -17 -79 1 -25 19 -49 19 -78 -1 -14 -8 -51
-16 -85 -18 -53 -2 -61 0 -61 16 0 10 -7 18 -15 18 -8 0 -15 5 -15 10 0 6 -7
10 -15 10 -8 0 -15 4 -15 9 0 13 -62 23 -74 11 -14 -14 -59 -13 -74 2 -14 14
-16 50 -2 64 14 14 -7 84 -25 84 -11 0 -15 -13 -15 -49z m1620 9 c0 -5 -9 -10
-20 -10 -11 0 -20 5 -20 10 0 6 9 10 20 10 11 0 20 -4 20 -10z m-346 -19 c4
-5 -5 -23 -19 -39 -27 -32 -75 -49 -75 -26 0 8 7 14 15 14 8 0 15 6 15 14 0 8
10 22 22 30 26 18 35 20 42 7z m-124 -86 c0 -8 8 -15 18 -15 13 0 17 -9 18
-43 1 -23 0 -34 -3 -25 -2 10 -10 15 -19 11 -22 -8 -64 17 -64 38 0 19 25 49
41 49 5 0 9 -7 9 -15z m590 -110 c0 -18 -31 -35 -64 -35 -32 0 -33 13 -3 33
28 20 67 22 67 2z m47 9 c-3 -3 -12 -4 -19 -1 -8 3 -5 6 6 6 11 1 17 -2 13 -5z
m-1520 -36 c-3 -7 -5 -2 -5 12 0 14 2 19 5 13 2 -7 2 -19 0 -25z m491 20 c-3
-7 -11 -13 -18 -13 -7 0 -15 6 -17 13 -3 7 4 12 17 12 13 0 20 -5 18 -12z
m-262 -78 c46 -23 57 -39 48 -75 -6 -24 -29 -35 -75 -35 -15 0 -32 -7 -39 -15
-20 -24 -30 -18 -30 20 0 31 37 125 49 125 3 0 24 -9 47 -20z m346 -185 c0 -5
-5 -11 -11 -13 -6 -2 -11 4 -11 13 0 9 5 15 11 13 6 -2 11 -8 11 -13z m196
-147 c23 -23 42 -75 42 -120 0 -17 5 -28 13 -28 14 0 31 -27 43 -70 6 -23 34
-58 41 -52 8 6 23 1 23 -9 0 -6 -8 -8 -17 -5 -17 6 -17 5 -1 -7 10 -8 15 -16
12 -19 -3 -4 6 -29 21 -57 20 -41 23 -55 15 -69 -11 -16 -11 -16 -6 1 3 10 -1
28 -9 40 -8 12 -15 18 -15 14 0 -5 -5 -5 -11 -1 -7 4 -7 10 -1 16 7 7 1 19
-19 36 -17 13 -28 31 -25 38 3 8 1 13 -3 11 -12 -3 -52 44 -46 54 3 4 -9 24
-27 43 -26 28 -43 37 -80 42 l-48 7 0 -54 c0 -50 2 -55 33 -74 17 -10 40 -23
50 -27 10 -4 26 -15 35 -25 16 -16 16 -16 -1 -10 -10 4 -23 7 -28 7 -6 0 -7 5
-3 11 4 7 -2 9 -17 7 -15 -2 -23 2 -22 10 2 6 -2 12 -7 12 -15 0 -12 -16 5
-34 21 -21 19 -28 -7 -21 -22 7 -22 6 -6 -10 10 -11 30 -18 50 -17 29 1 31 0
13 -11 -19 -11 -19 -11 5 -18 22 -6 20 -7 -12 -8 -28 -1 -40 4 -48 19 -6 11
-14 18 -19 16 -9 -6 -40 28 -63 71 -24 44 -23 101 5 168 17 43 27 55 44 55 12
0 24 -4 27 -9 11 -17 63 -18 73 -2 10 17 -8 66 -20 54 -4 -3 -7 -1 -7 5 0 7
-7 12 -15 12 -8 0 -15 5 -15 11 0 6 -14 9 -32 7 -28 -2 -33 -7 -33 -28 0 -14
-4 -25 -10 -25 -5 0 -9 8 -8 18 2 13 -5 17 -30 18 l-32 1 28 8 c16 5 34 13 40
18 32 26 84 17 125 -20z m-28 -28 c0 -5 -7 -7 -15 -4 -8 4 -15 8 -15 10 0 2 7
4 15 4 8 0 15 -4 15 -10z m-825 -290 c-3 -5 -13 -10 -21 -10 -8 0 -12 5 -9 10
3 6 13 10 21 10 8 0 12 -4 9 -10z m1225 -21 c0 -5 4 -8 10 -4 5 3 16 -7 24
-23 13 -25 23 -30 68 -35 29 -4 67 -7 83 -7 22 0 31 -5 33 -17 10 -102 11
-163 1 -163 -5 0 -7 -4 -4 -10 3 -5 -3 -10 -14 -10 -14 0 -21 6 -21 19 0 11
-22 36 -52 60 -29 23 -63 49 -75 59 -12 9 -22 22 -23 28 0 11 -30 16 -30 4 0
-3 -10 -7 -22 -7 -13 -1 -24 -7 -26 -12 -2 -5 -10 -7 -18 -4 -20 8 -18 79 4
102 26 27 62 39 62 20z m-292 -25 c19 -19 15 -24 -18 -24 -25 0 -30 4 -30 25
0 19 4 23 18 18 9 -4 23 -12 30 -19z m721 -46 c14 -24 14 -28 -3 -47 -37 -40
-96 -20 -96 33 0 42 6 48 49 44 26 -2 39 -10 50 -30z m-1139 -18 c0 -13 -7
-20 -19 -20 -22 0 -35 15 -26 30 12 19 45 11 45 -10z m40 -12 c0 -5 -7 -8 -15
-8 -15 0 -20 21 -8 33 7 7 23 -11 23 -25z m460 -10 c0 -5 -5 -6 -12 -2 -7 4
-8 3 -4 -5 4 -6 12 -9 17 -5 14 8 89 -67 89 -89 0 -10 5 -15 10 -12 6 3 10 -3
10 -14 0 -11 5 -23 10 -26 6 -3 10 -11 10 -18 0 -6 -16 13 -36 43 -49 73 -83
110 -99 104 -7 -3 -16 4 -20 15 -3 12 -11 21 -16 21 -5 0 -9 4 -9 10 0 6 10 5
25 -2 14 -6 25 -15 25 -20z m-241 -2 c13 -14 29 -22 37 -19 8 3 14 3 14 0 0
-18 -34 -12 -61 10 -27 23 -30 24 -18 5 7 -12 26 -27 41 -33 16 -6 28 -15 28
-20 0 -5 5 -9 11 -9 12 0 109 -83 209 -177 62 -58 108 -95 233 -189 52 -40 87
-73 87 -83 0 -10 -18 -30 -41 -45 -22 -15 -39 -33 -36 -39 2 -7 -12 -25 -31
-42 -28 -24 -33 -26 -24 -9 6 12 19 24 27 28 18 6 -4 28 -100 100 -54 41 -145
119 -240 207 -33 31 -80 73 -105 95 -25 21 -47 41 -50 44 -88 89 -142 132
-152 122 -7 -7 -17 -12 -22 -12 -18 0 37 34 99 61 75 34 67 33 94 5z m-853
-123 c-10 -10 -19 5 -10 18 6 11 8 11 12 0 2 -7 1 -15 -2 -18z m524 -63 c0 -5
-2 -10 -4 -10 -3 0 -8 5 -11 10 -3 6 -1 10 4 10 6 0 11 -4 11 -10z m-80 -123
c0 -2 -10 -12 -22 -23 l-23 -19 19 23 c18 21 26 27 26 19z m-181 -204 c-46
-51 -59 -63 -59 -56 0 8 71 83 79 83 2 0 -6 -12 -20 -27z m-69 -66 c0 -2 -15
-16 -32 -33 l-33 -29 29 33 c28 30 36 37 36 29z m1508 -204 l23 -43 -41 0
c-59 0 -78 25 -56 73 14 30 48 16 74 -30z"/>
<path d="M1038 1213 c7 -3 16 -2 19 1 4 3 -2 6 -13 5 -11 0 -14 -3 -6 -6z"/>
<path d="M1353 385 c0 -8 4 -12 9 -9 5 3 6 10 3 15 -9 13 -12 11 -12 -6z"/>
<path d="M270 1987 c0 -23 74 -113 116 -140 51 -33 112 -37 139 -7 21 24 14
47 -17 52 -38 5 -36 47 4 80 l33 27 -71 1 c-41 0 -75 -5 -82 -12 -9 -9 -15 -9
-24 0 -16 16 -98 16 -98 -1z"/>
<path d="M1783 1988 c2 -7 10 -13 17 -13 7 0 15 6 18 13 2 7 -5 12 -18 12 -13
0 -20 -5 -17 -12z"/>
<path d="M155 618 c9 -27 22 -44 30 -36 8 7 -16 58 -27 58 -5 0 -6 -10 -3 -22z"/>
<path d="M825 273 c-47 -12 -90 -84 -86 -145 3 -43 -7 -81 -19 -73 -4 3 -6 -4
-3 -15 4 -15 9 -17 23 -10 25 13 27 13 33 -10 5 -18 14 -20 94 -20 89 0 89 0
113 32 34 45 35 139 3 184 -36 51 -96 72 -158 57z"/>
<path d="M1174 209 c3 -19 7 -40 8 -46 1 -9 5 -10 15 -2 19 16 16 36 -8 60
l-22 22 7 -34z"/>
<path d="M641 184 c0 -11 3 -14 6 -6 3 7 2 16 -1 19 -3 4 -6 -2 -5 -13z"/>
<path d="M630 150 c0 -5 5 -10 10 -10 6 0 10 5 10 10 0 6 -4 10 -10 10 -5 0
-10 -4 -10 -10z"/>
<path d="M1220 110 c-12 -7 -12 -12 -2 -22 9 -9 15 -9 24 0 16 16 -2 34 -22
22z"/>
</g>
</svg>
